<?xml version="1.0" encoding="utf-8"?>
<!-- Generator: Adobe Illustrator 23.1.0, SVG Export Plug-In . SVG Version: 6.00 Build 0)  -->
<svg version="1.1" id="Layer_1" xmlns="http://www.w3.org/2000/svg" xmlns:xlink="http://www.w3.org/1999/xlink" x="0px" y="0px"
	 viewBox="0 0 204.64 77.85" style="enable-background:new 0 0 204.64 77.85;" xml:space="preserve">
<style type="text/css">
	.st0{fill:#7F1416;}
	.st1{font-family:'TimesNewRomanPSMT';}
	.st2{font-size:6.4749px;}
	.st3{fill-rule:evenodd;clip-rule:evenodd;fill:#FBF6B2;}
	.st4{fill:none;stroke:#7F1416;stroke-width:0.237;stroke-linecap:round;stroke-miterlimit:10;}
	.st5{fill:none;stroke:#010101;stroke-width:0.7109;stroke-linecap:round;stroke-miterlimit:10;}
	.st6{fill:#010101;}
	.st7{fill:#282A74;}
	.st8{fill:none;stroke:#7F1416;stroke-width:0.7109;stroke-linecap:round;stroke-miterlimit:10;}
	.st9{fill:none;stroke:#282A74;stroke-width:0.7109;stroke-linecap:round;stroke-miterlimit:10;}
	.st10{fill:none;stroke:#282A74;stroke-width:0.237;stroke-linecap:round;stroke-miterlimit:10;}
</style>
<text transform="matrix(1.0246 0 0 1 144.2682 35.0152)"><tspan x="0" y="0" class="st0 st1 st2">CF</tspan><tspan x="7.84" y="0" class="st0 st1 st2">G</tspan></text>
<text transform="matrix(1.0246 0 0 1 157.0445 35.0152)" class="st0 st1 st2">_</text>
<text transform="matrix(1.0246 0 0 1 160.484 35.0152)" class="st0 st1 st2">E</text>
<text transform="matrix(1.0246 0 0 1 164.6617 35.0152)"><tspan x="0" y="0" class="st0 st1 st2">MCC</tspan><tspan x="14.32" y="0" class="st0 st1 st2">L</tspan></text>
<text transform="matrix(1.0246 0 0 1 183.3356 35.0152)" class="st0 st1 st2">K</text>
<text transform="matrix(1.0246 0 0 1 144.2682 42.2096)"><tspan x="0" y="0" class="st0 st1 st2">CF</tspan><tspan x="7.84" y="0" class="st0 st1 st2">G</tspan></text>
<text transform="matrix(1.0246 0 0 1 157.0445 42.2096)" class="st0 st1 st2">_</text>
<text transform="matrix(1.0246 0 0 1 160.484 42.2096)"><tspan x="0" y="0" class="st0 st1 st2">S</tspan><tspan x="3.65" y="0" class="st0 st1 st2">E</tspan></text>
<text transform="matrix(1.0246 0 0 1 168.3473 42.2096)"><tspan x="0" y="0" class="st0 st1 st2">R</tspan><tspan x="4.38" y="0" class="st0 st1 st2">_</tspan></text>
<text transform="matrix(1.0246 0 0 1 176.2106 42.2096)" class="st0 st1 st2">D</text>
<text transform="matrix(1.0246 0 0 1 181.1246 42.2096)" class="st0 st1 st2">O</text>
<text transform="matrix(1.0246 0 0 1 185.7926 42.2096)" class="st0 st1 st2">U</text>
<text transform="matrix(1.0246 0 0 1 190.4606 42.2096)" class="st0 st1 st2">T</text>
<rect x="93.89" y="29.26" class="st3" width="28.78" height="43.17"/>
<rect x="93.89" y="29.26" class="st4" width="28.78" height="43.17"/>
<line class="st5" x1="93.89" y1="36.45" x2="79.5" y2="36.45"/>
<text transform="matrix(1.0246 0 0 1 98.9332 38.6129)" class="st6 st1 st2">1</text>
<line class="st5" x1="122.68" y1="36.45" x2="137.07" y2="36.45"/>
<text transform="matrix(1.0246 0 0 1 114.7633 38.6129)" class="st6 st1 st2">2</text>
<line class="st5" x1="93.89" y1="43.65" x2="79.5" y2="43.65"/>
<text transform="matrix(1.0246 0 0 1 98.9332 45.8072)" class="st6 st1 st2">3</text>
<line class="st5" x1="122.68" y1="43.65" x2="137.07" y2="43.65"/>
<text transform="matrix(1.0246 0 0 1 114.5231 45.8072)" class="st6 st1 st2">4</text>
<line class="st5" x1="93.89" y1="50.84" x2="79.5" y2="50.84"/>
<text transform="matrix(1.0246 0 0 1 98.9332 53.0016)" class="st6 st1 st2">5</text>
<line class="st5" x1="122.68" y1="50.84" x2="137.07" y2="50.84"/>
<text transform="matrix(1.0246 0 0 1 114.5231 53.0016)" class="st6 st1 st2">6</text>
<line class="st5" x1="93.89" y1="58.04" x2="79.5" y2="58.04"/>
<text transform="matrix(1.0246 0 0 1 98.9332 60.1959)" class="st6 st1 st2">7</text>
<line class="st5" x1="122.68" y1="58.04" x2="137.07" y2="58.04"/>
<text transform="matrix(1.0246 0 0 1 114.7633 60.1959)" class="st6 st1 st2">8</text>
<line class="st5" x1="93.89" y1="65.23" x2="79.5" y2="65.23"/>
<text transform="matrix(1.0246 0 0 1 98.9332 67.3902)" class="st6 st1 st2">9</text>
<line class="st5" x1="122.68" y1="65.23" x2="137.07" y2="65.23"/>
<text transform="matrix(1.0246 0 0 1 111.4059 67.3902)" class="st6 st1 st2">1</text>
<text transform="matrix(1.0246 0 0 1 114.5992 67.3902)" class="st6 st1 st2">0</text>
<text transform="matrix(1.0246 0 0 1 93.8951 27.8209)"><tspan x="0" y="0" class="st7 st1 st2">P</tspan><tspan x="3.65" y="0" class="st7 st1 st2">2</tspan></text>
<text transform="matrix(1.0246 0 0 1 144.2682 49.4039)"><tspan x="0" y="0" class="st0 st1 st2">CF</tspan><tspan x="7.84" y="0" class="st0 st1 st2">G</tspan></text>
<text transform="matrix(1.0246 0 0 1 157.0445 49.4039)" class="st0 st1 st2">_</text>
<text transform="matrix(1.0246 0 0 1 160.484 49.4039)"><tspan x="0" y="0" class="st0 st1 st2">SPI</tspan><tspan x="9.44" y="0" class="st0 st1 st2">_</tspan></text>
<text transform="matrix(1.0246 0 0 1 173.5074 49.4039)"><tspan x="0" y="0" class="st0 st1 st2">M</tspan><tspan x="5.82" y="0" class="st0 st1 st2">O</tspan></text>
<text transform="matrix(1.0246 0 0 1 184.318 49.4039)" class="st0 st1 st2">SI</text>
<text transform="matrix(1.0246 0 0 1 144.2682 56.5982)"><tspan x="0" y="0" class="st0 st1 st2">CF</tspan><tspan x="7.84" y="0" class="st0 st1 st2">G</tspan></text>
<text transform="matrix(1.0246 0 0 1 157.0445 56.5982)" class="st0 st1 st2">_</text>
<text transform="matrix(1.0246 0 0 1 160.484 56.5982)"><tspan x="0" y="0" class="st0 st1 st2">S</tspan><tspan x="3.65" y="0" class="st0 st1 st2">E</tspan></text>
<text transform="matrix(1.0246 0 0 1 168.3473 56.5982)"><tspan x="0" y="0" class="st0 st1 st2">R</tspan><tspan x="4.38" y="0" class="st0 st1 st2">_</tspan></text>
<text transform="matrix(1.0246 0 0 1 176.2106 56.5982)" class="st0 st1 st2">D</text>
<text transform="matrix(1.0246 0 0 1 181.1246 56.5982)" class="st0 st1 st2">I</text>
<text transform="matrix(1.0246 0 0 1 183.0895 56.5982)" class="st0 st1 st2">N</text>
<text transform="matrix(1.0246 0 0 1 144.2682 63.7926)"><tspan x="0" y="0" class="st0 st1 st2">CF</tspan><tspan x="7.84" y="0" class="st0 st1 st2">G</tspan></text>
<text transform="matrix(1.0246 0 0 1 157.0445 63.7926)" class="st0 st1 st2">_</text>
<text transform="matrix(1.0246 0 0 1 160.484 63.7926)"><tspan x="0" y="0" class="st0 st1 st2">SPI</tspan><tspan x="9.44" y="0" class="st0 st1 st2">_</tspan></text>
<text transform="matrix(1.0246 0 0 1 173.5074 63.7926)" class="st0 st1 st2">CS</text>
<text transform="matrix(1.0246 0 0 1 14.7379 49.4039)"><tspan x="0" y="0" class="st0 st1 st2">CF</tspan><tspan x="7.84" y="0" class="st0 st1 st2">G</tspan></text>
<text transform="matrix(1.0246 0 0 1 27.5143 49.4039)" class="st0 st1 st2">_</text>
<text transform="matrix(1.0246 0 0 1 30.9547 49.4039)"><tspan x="0" y="0" class="st0 st1 st2">P</tspan><tspan x="3.63" y="0" class="st0 st1 st2">R</tspan><tspan x="7.99" y="0" class="st0 st1 st2">O</tspan></text>
<text transform="matrix(1.0246 0 0 1 43.9772 49.4039)" class="st0 st1 st2">G</text>
<text transform="matrix(1.0246 0 0 1 48.6461 49.4039)"><tspan x="0" y="0" class="st0 st1 st2">R</tspan><tspan x="4.38" y="0" class="st0 st1 st2">A</tspan></text>
<text transform="matrix(1.0246 0 0 1 57.982 49.4039)" class="st0 st1 st2">MB</text>
<text transform="matrix(1.0246 0 0 1 14.7379 56.5982)"><tspan x="0" y="0" class="st0 st1 st2">CF</tspan><tspan x="7.84" y="0" class="st0 st1 st2">G</tspan></text>
<text transform="matrix(1.0246 0 0 1 27.5143 56.5982)" class="st0 st1 st2">_</text>
<text transform="matrix(1.0246 0 0 1 30.9547 56.5982)" class="st0 st1 st2">D</text>
<text transform="matrix(1.0246 0 0 1 35.8688 56.5982)" class="st0 st1 st2">O</text>
<text transform="matrix(1.0246 0 0 1 40.5367 56.5982)" class="st0 st1 st2">N</text>
<text transform="matrix(1.0246 0 0 1 45.2047 56.5982)" class="st0 st1 st2">E</text>
<text transform="matrix(1.0246 0 0 1 14.7379 63.7926)"><tspan x="0" y="0" class="st0 st1 st2">CF</tspan><tspan x="7.84" y="0" class="st0 st1 st2">G</tspan></text>
<text transform="matrix(1.0246 0 0 1 27.5143 63.7926)" class="st0 st1 st2">_</text>
<text transform="matrix(1.0246 0 0 1 30.9547 63.7926)"><tspan x="0" y="0" class="st0 st1 st2">I</tspan><tspan x="2.21" y="0" class="st0 st1 st2">N</tspan></text>
<text transform="matrix(1.0246 0 0 1 38.0797 63.7926)"><tspan x="0" y="0" class="st0 st1 st2">I</tspan><tspan x="2.1" y="0" class="st0 st1 st2">T</tspan></text>
<text transform="matrix(1.0246 0 0 1 44.2223 63.7926)" class="st0 st1 st2">B</text>
<line class="st8" x1="7.54" y1="22.07" x2="21.93" y2="22.07"/>
<line class="st8" x1="9.7" y1="24.22" x2="19.77" y2="24.22"/>
<line class="st8" x1="11.86" y1="26.38" x2="17.62" y2="26.38"/>
<line class="st8" x1="14.02" y1="28.54" x2="15.46" y2="28.54"/>
<text transform="matrix(1.0246 0 0 1 7.7809 35.0152)" class="st0 st1 st2">G</text>
<text transform="matrix(1.0246 0 0 1 12.4488 35.0152)" class="st0 st1 st2">N</text>
<text transform="matrix(1.0246 0 0 1 17.3629 35.0152)" class="st0 st1 st2">D</text>
<line class="st8" x1="14.74" y1="14.87" x2="14.74" y2="22.07"/>
<line class="st9" x1="137.07" y1="36.45" x2="194.64" y2="36.45"/>
<line class="st9" x1="137.07" y1="43.65" x2="194.64" y2="43.65"/>
<line class="st9" x1="137.07" y1="50.84" x2="194.64" y2="50.84"/>
<line class="st9" x1="137.07" y1="58.04" x2="194.64" y2="58.04"/>
<line class="st9" x1="137.07" y1="65.23" x2="194.64" y2="65.23"/>
<line class="st9" x1="79.5" y1="50.84" x2="7.54" y2="50.84"/>
<line class="st9" x1="79.5" y1="58.04" x2="7.54" y2="58.04"/>
<line class="st9" x1="79.5" y1="65.23" x2="7.54" y2="65.23"/>
<polyline class="st9" points="79.5,36.45 36.33,36.45 36.33,7.68 14.74,7.68 14.74,14.87 "/>
<path class="st7" d="M34.89,36.45c0-0.78,0.66-1.44,1.44-1.44c0.81,0,1.44,0.66,1.44,1.44l0,0c0,0.81-0.63,1.44-1.44,1.44
	C35.55,37.89,34.89,37.26,34.89,36.45z"/>
<path class="st10" d="M34.89,36.45c0-0.78,0.66-1.44,1.44-1.44c0.81,0,1.44,0.66,1.44,1.44l0,0c0,0.81-0.63,1.44-1.44,1.44
	C35.55,37.89,34.89,37.26,34.89,36.45z"/>
<polyline class="st9" points="79.5,43.65 36.33,43.65 36.33,36.45 "/>
<path class="st7" d="M34.89,36.45c0-0.78,0.66-1.44,1.44-1.44c0.81,0,1.44,0.66,1.44,1.44l0,0c0,0.81-0.63,1.44-1.44,1.44
	C35.55,37.89,34.89,37.26,34.89,36.45z"/>
<path class="st10" d="M34.89,36.45c0-0.78,0.66-1.44,1.44-1.44c0.81,0,1.44,0.66,1.44,1.44l0,0c0,0.81-0.63,1.44-1.44,1.44
	C35.55,37.89,34.89,37.26,34.89,36.45z"/>
</svg>
