<?xml version="1.0" encoding="utf-8"?>
<!-- Generator: Adobe Illustrator 23.1.0, SVG Export Plug-In . SVG Version: 6.00 Build 0)  -->
<svg version="1.1" id="Layer_1" xmlns="http://www.w3.org/2000/svg" xmlns:xlink="http://www.w3.org/1999/xlink" x="0px" y="0px"
	 viewBox="0 0 267.79 193.96" style="enable-background:new 0 0 267.79 193.96;" xml:space="preserve">
<style type="text/css">
	.st0{fill:#282A74;}
	.st1{fill:none;stroke:#282A74;stroke-width:0.237;stroke-linecap:round;stroke-miterlimit:10;}
	.st2{fill-rule:evenodd;clip-rule:evenodd;fill:#FBF6B2;}
	.st3{fill:none;stroke:#7F1416;stroke-width:0.237;stroke-linecap:round;stroke-miterlimit:10;}
	.st4{fill:none;stroke:#010101;stroke-width:0.7109;stroke-linecap:round;stroke-miterlimit:10;}
	.st5{fill:#010101;}
	.st6{font-family:'TimesNewRomanPSMT';}
	.st7{font-size:6.4749px;}
	.st8{fill:none;stroke:#3A53A4;stroke-width:0.7109;stroke-linecap:round;stroke-miterlimit:10;}
	.st9{fill:none;stroke:#7F1416;stroke-width:0.7109;stroke-linecap:round;stroke-miterlimit:10;}
	.st10{fill:#7F1416;}
	.st11{fill:none;stroke:#282A74;stroke-width:0.7109;stroke-linecap:round;stroke-miterlimit:10;}
</style>
<path class="st0" d="M152,17.38c0-0.79,0.64-1.44,1.44-1.44c0.79,0,1.44,0.64,1.44,1.44l0,0c0,0.79-0.64,1.44-1.44,1.44
	C152.64,18.82,152,18.18,152,17.38z"/>
<path class="st1" d="M152,17.38c0-0.79,0.64-1.44,1.44-1.44c0.79,0,1.44,0.64,1.44,1.44l0,0c0,0.79-0.64,1.44-1.44,1.44
	C152.64,18.82,152,18.18,152,17.38z"/>
<path class="st0" d="M152,24.58c0-0.79,0.64-1.44,1.44-1.44c0.79,0,1.44,0.64,1.44,1.44l0,0c0,0.79-0.64,1.44-1.44,1.44
	C152.64,26.01,152,25.37,152,24.58z"/>
<path class="st1" d="M152,24.58c0-0.79,0.64-1.44,1.44-1.44c0.79,0,1.44,0.64,1.44,1.44l0,0c0,0.79-0.64,1.44-1.44,1.44
	C152.64,26.01,152,25.37,152,24.58z"/>
<path class="st0" d="M152,31.77c0-0.79,0.64-1.44,1.44-1.44c0.79,0,1.44,0.64,1.44,1.44l0,0c0,0.79-0.64,1.44-1.44,1.44
	C152.64,33.21,152,32.56,152,31.77z"/>
<path class="st1" d="M152,31.77c0-0.79,0.64-1.44,1.44-1.44c0.79,0,1.44,0.64,1.44,1.44l0,0c0,0.79-0.64,1.44-1.44,1.44
	C152.64,33.21,152,32.56,152,31.77z"/>
<path class="st0" d="M152,38.96c0-0.79,0.64-1.44,1.44-1.44c0.79,0,1.44,0.64,1.44,1.44l0,0c0,0.79-0.64,1.44-1.44,1.44
	C152.64,40.4,152,39.76,152,38.96z"/>
<path class="st1" d="M152,38.96c0-0.79,0.64-1.44,1.44-1.44c0.79,0,1.44,0.64,1.44,1.44l0,0c0,0.79-0.64,1.44-1.44,1.44
	C152.64,40.4,152,39.76,152,38.96z"/>
<rect x="121.06" y="10.19" class="st2" width="21.59" height="151.08"/>
<rect x="121.06" y="10.19" class="st3" width="21.59" height="151.08"/>
<line class="st4" x1="124.65" y1="17.38" x2="110.26" y2="17.38"/>
<text transform="matrix(1.0246 0 0 1 116.4988 15.942)" class="st5 st6 st7">1</text>
<line class="st4" x1="139.05" y1="17.38" x2="153.44" y2="17.38"/>
<text transform="matrix(1.0246 0 0 1 144.8035 15.942)" class="st5 st6 st7">2</text>
<path class="st0" d="M152,17.38c0-0.79,0.64-1.44,1.44-1.44c0.79,0,1.44,0.64,1.44,1.44l0,0c0,0.79-0.64,1.44-1.44,1.44
	C152.64,18.82,152,18.18,152,17.38z"/>
<path class="st1" d="M152,17.38c0-0.79,0.64-1.44,1.44-1.44c0.79,0,1.44,0.64,1.44,1.44l0,0c0,0.79-0.64,1.44-1.44,1.44
	C152.64,18.82,152,18.18,152,17.38z"/>
<line class="st4" x1="124.65" y1="24.58" x2="110.26" y2="24.58"/>
<text transform="matrix(1.0246 0 0 1 116.2596 23.1364)" class="st5 st6 st7">3</text>
<line class="st4" x1="139.05" y1="24.58" x2="153.44" y2="24.58"/>
<text transform="matrix(1.0246 0 0 1 144.8035 23.1364)" class="st5 st6 st7">4</text>
<path class="st0" d="M152,24.58c0-0.79,0.64-1.44,1.44-1.44c0.79,0,1.44,0.64,1.44,1.44l0,0c0,0.79-0.64,1.44-1.44,1.44
	C152.64,26.01,152,25.37,152,24.58z"/>
<path class="st1" d="M152,24.58c0-0.79,0.64-1.44,1.44-1.44c0.79,0,1.44,0.64,1.44,1.44l0,0c0,0.79-0.64,1.44-1.44,1.44
	C152.64,26.01,152,25.37,152,24.58z"/>
<line class="st4" x1="124.65" y1="31.77" x2="110.26" y2="31.77"/>
<text transform="matrix(1.0246 0 0 1 116.0194 30.3307)" class="st5 st6 st7">5</text>
<line class="st4" x1="139.05" y1="31.77" x2="153.44" y2="31.77"/>
<text transform="matrix(1.0246 0 0 1 144.8035 30.3307)" class="st5 st6 st7">6</text>
<path class="st0" d="M152,31.77c0-0.79,0.64-1.44,1.44-1.44c0.79,0,1.44,0.64,1.44,1.44l0,0c0,0.79-0.64,1.44-1.44,1.44
	C152.64,33.21,152,32.56,152,31.77z"/>
<path class="st1" d="M152,31.77c0-0.79,0.64-1.44,1.44-1.44c0.79,0,1.44,0.64,1.44,1.44l0,0c0,0.79-0.64,1.44-1.44,1.44
	C152.64,33.21,152,32.56,152,31.77z"/>
<line class="st4" x1="124.65" y1="38.96" x2="110.26" y2="38.96"/>
<text transform="matrix(1.0246 0 0 1 116.0194 37.5255)" class="st5 st6 st7">7</text>
<line class="st4" x1="139.05" y1="38.96" x2="153.44" y2="38.96"/>
<text transform="matrix(1.0246 0 0 1 144.8035 37.5255)" class="st5 st6 st7">8</text>
<path class="st0" d="M152,38.96c0-0.79,0.64-1.44,1.44-1.44c0.79,0,1.44,0.64,1.44,1.44l0,0c0,0.79-0.64,1.44-1.44,1.44
	C152.64,40.4,152,39.76,152,38.96z"/>
<path class="st1" d="M152,38.96c0-0.79,0.64-1.44,1.44-1.44c0.79,0,1.44,0.64,1.44,1.44l0,0c0,0.79-0.64,1.44-1.44,1.44
	C152.64,40.4,152,39.76,152,38.96z"/>
<line class="st4" x1="124.65" y1="46.16" x2="110.26" y2="46.16"/>
<text transform="matrix(1.0246 0 0 1 116.0194 44.7194)" class="st5 st6 st7">9</text>
<line class="st4" x1="139.05" y1="46.16" x2="153.44" y2="46.16"/>
<text transform="matrix(1.0246 0 0 1 144.8035 44.7194)" class="st5 st6 st7">1</text>
<text transform="matrix(1.0246 0 0 1 147.9979 44.7194)" class="st5 st6 st7">0</text>
<path class="st8" d="M122.5,17.38c0-1.18,0.97-2.16,2.16-2.16c1.2,0,2.16,0.97,2.16,2.16l0,0c0,1.2-0.96,2.16-2.16,2.16
	C123.47,19.54,122.5,18.58,122.5,17.38z"/>
<path class="st8" d="M126.81,17.38c0-1.18-0.96-2.16-2.16-2.16c-1.18,0-2.16,0.97-2.16,2.16c0,1.2,0.97,2.16,2.16,2.16
	C125.85,19.54,126.81,18.58,126.81,17.38"/>
<path class="st8" d="M122.5,24.58c0-1.18,0.97-2.16,2.16-2.16c1.2,0,2.16,0.97,2.16,2.16l0,0c0,1.2-0.96,2.16-2.16,2.16
	C123.47,26.73,122.5,25.77,122.5,24.58z"/>
<path class="st8" d="M126.81,24.58c0-1.18-0.96-2.16-2.16-2.16c-1.18,0-2.16,0.97-2.16,2.16c0,1.2,0.97,2.16,2.16,2.16
	C125.85,26.73,126.81,25.77,126.81,24.58"/>
<path class="st8" d="M122.5,31.77c0-1.18,0.97-2.16,2.16-2.16c1.2,0,2.16,0.97,2.16,2.16l0,0c0,1.2-0.96,2.16-2.16,2.16
	C123.47,33.93,122.5,32.97,122.5,31.77z"/>
<path class="st8" d="M126.81,31.77c0-1.18-0.96-2.16-2.16-2.16c-1.18,0-2.16,0.97-2.16,2.16c0,1.2,0.97,2.16,2.16,2.16
	C125.85,33.93,126.81,32.97,126.81,31.77"/>
<path class="st8" d="M122.5,38.96c0-1.18,0.97-2.16,2.16-2.16c1.2,0,2.16,0.97,2.16,2.16l0,0c0,1.2-0.96,2.16-2.16,2.16
	C123.47,41.12,122.5,40.16,122.5,38.96z"/>
<path class="st8" d="M126.81,38.96c0-1.18-0.96-2.16-2.16-2.16c-1.18,0-2.16,0.97-2.16,2.16c0,1.2,0.97,2.16,2.16,2.16
	C125.85,41.12,126.81,40.16,126.81,38.96"/>
<path class="st8" d="M122.5,46.16c0-1.18,0.97-2.16,2.16-2.16c1.2,0,2.16,0.97,2.16,2.16l0,0c0,1.2-0.96,2.16-2.16,2.16
	C123.47,48.32,122.5,47.36,122.5,46.16z"/>
<path class="st8" d="M126.81,46.16c0-1.18-0.96-2.16-2.16-2.16c-1.18,0-2.16,0.97-2.16,2.16c0,1.2,0.97,2.16,2.16,2.16
	C125.85,48.32,126.81,47.36,126.81,46.16"/>
<path class="st8" d="M136.89,46.16c0-1.18,0.97-2.16,2.16-2.16c1.2,0,2.16,0.97,2.16,2.16l0,0c0,1.2-0.96,2.16-2.16,2.16
	C137.86,48.32,136.89,47.36,136.89,46.16z"/>
<path class="st8" d="M141.21,46.16c0-1.18-0.96-2.16-2.16-2.16c-1.18,0-2.16,0.97-2.16,2.16c0,1.2,0.97,2.16,2.16,2.16
	C140.25,48.32,141.21,47.36,141.21,46.16"/>
<path class="st8" d="M136.89,38.96c0-1.18,0.97-2.16,2.16-2.16c1.2,0,2.16,0.97,2.16,2.16l0,0c0,1.2-0.96,2.16-2.16,2.16
	C137.86,41.12,136.89,40.16,136.89,38.96z"/>
<path class="st8" d="M141.21,38.96c0-1.18-0.96-2.16-2.16-2.16c-1.18,0-2.16,0.97-2.16,2.16c0,1.2,0.97,2.16,2.16,2.16
	C140.25,41.12,141.21,40.16,141.21,38.96"/>
<path class="st8" d="M136.89,31.77c0-1.18,0.97-2.16,2.16-2.16c1.2,0,2.16,0.97,2.16,2.16l0,0c0,1.2-0.96,2.16-2.16,2.16
	C137.86,33.93,136.89,32.97,136.89,31.77z"/>
<path class="st8" d="M141.21,31.77c0-1.18-0.96-2.16-2.16-2.16c-1.18,0-2.16,0.97-2.16,2.16c0,1.2,0.97,2.16,2.16,2.16
	C140.25,33.93,141.21,32.97,141.21,31.77"/>
<path class="st8" d="M136.89,24.58c0-1.18,0.97-2.16,2.16-2.16c1.2,0,2.16,0.97,2.16,2.16l0,0c0,1.2-0.96,2.16-2.16,2.16
	C137.86,26.73,136.89,25.77,136.89,24.58z"/>
<path class="st8" d="M141.21,24.58c0-1.18-0.96-2.16-2.16-2.16c-1.18,0-2.16,0.97-2.16,2.16c0,1.2,0.97,2.16,2.16,2.16
	C140.25,26.73,141.21,25.77,141.21,24.58"/>
<path class="st8" d="M136.89,17.38c0-1.18,0.97-2.16,2.16-2.16c1.2,0,2.16,0.97,2.16,2.16l0,0c0,1.2-0.96,2.16-2.16,2.16
	C137.86,19.54,136.89,18.58,136.89,17.38z"/>
<path class="st8" d="M141.21,17.38c0-1.18-0.96-2.16-2.16-2.16c-1.18,0-2.16,0.97-2.16,2.16c0,1.2,0.97,2.16,2.16,2.16
	C140.25,19.54,141.21,18.58,141.21,17.38"/>
<line class="st4" x1="124.65" y1="53.35" x2="110.26" y2="53.35"/>
<text transform="matrix(1.0246 0 0 1 113.1404 51.9137)" class="st5 st6 st7">1</text>
<text transform="matrix(1.0246 0 0 1 116.0887 51.9137)" class="st5 st6 st7">1</text>
<path class="st8" d="M122.5,53.35c0-1.18,0.97-2.16,2.16-2.16c1.2,0,2.16,0.97,2.16,2.16l0,0c0,1.2-0.96,2.16-2.16,2.16
	C123.47,55.51,122.5,54.55,122.5,53.35z"/>
<path class="st8" d="M126.81,53.35c0-1.18-0.96-2.16-2.16-2.16c-1.18,0-2.16,0.97-2.16,2.16c0,1.2,0.97,2.16,2.16,2.16
	C125.85,55.51,126.81,54.55,126.81,53.35"/>
<line class="st4" x1="124.65" y1="60.55" x2="110.26" y2="60.55"/>
<text transform="matrix(1.0246 0 0 1 112.9012 59.1085)" class="st5 st6 st7">1</text>
<text transform="matrix(1.0246 0 0 1 116.0955 59.1085)" class="st5 st6 st7">3</text>
<path class="st8" d="M122.5,60.55c0-1.18,0.97-2.16,2.16-2.16c1.2,0,2.16,0.97,2.16,2.16l0,0c0,1.2-0.96,2.16-2.16,2.16
	C123.47,62.71,122.5,61.75,122.5,60.55z"/>
<path class="st8" d="M126.81,60.55c0-1.18-0.96-2.16-2.16-2.16c-1.18,0-2.16,0.97-2.16,2.16c0,1.2,0.97,2.16,2.16,2.16
	C125.85,62.71,126.81,61.75,126.81,60.55"/>
<line class="st4" x1="124.65" y1="67.74" x2="110.26" y2="67.74"/>
<text transform="matrix(1.0246 0 0 1 112.9012 66.3029)" class="st5 st6 st7">1</text>
<text transform="matrix(1.0246 0 0 1 116.0955 66.3029)" class="st5 st6 st7">5</text>
<path class="st8" d="M122.5,67.74c0-1.18,0.97-2.16,2.16-2.16c1.2,0,2.16,0.97,2.16,2.16l0,0c0,1.2-0.96,2.16-2.16,2.16
	C123.47,69.9,122.5,68.94,122.5,67.74z"/>
<path class="st8" d="M126.81,67.74c0-1.18-0.96-2.16-2.16-2.16c-1.18,0-2.16,0.97-2.16,2.16c0,1.2,0.97,2.16,2.16,2.16
	C125.85,69.9,126.81,68.94,126.81,67.74"/>
<line class="st4" x1="124.65" y1="74.94" x2="110.26" y2="74.94"/>
<text transform="matrix(1.0246 0 0 1 112.661 73.4972)" class="st5 st6 st7">1</text>
<text transform="matrix(1.0246 0 0 1 115.8553 73.4972)" class="st5 st6 st7">7</text>
<path class="st8" d="M122.5,74.94c0-1.18,0.97-2.16,2.16-2.16c1.2,0,2.16,0.97,2.16,2.16l0,0c0,1.2-0.96,2.16-2.16,2.16
	C123.47,77.09,122.5,76.14,122.5,74.94z"/>
<path class="st8" d="M126.81,74.94c0-1.18-0.96-2.16-2.16-2.16c-1.18,0-2.16,0.97-2.16,2.16c0,1.2,0.97,2.16,2.16,2.16
	C125.85,77.09,126.81,76.14,126.81,74.94"/>
<line class="st4" x1="124.65" y1="82.13" x2="110.26" y2="82.13"/>
<text transform="matrix(1.0246 0 0 1 112.661 80.692)" class="st5 st6 st7">1</text>
<text transform="matrix(1.0246 0 0 1 115.8553 80.692)" class="st5 st6 st7">9</text>
<path class="st8" d="M122.5,82.13c0-1.18,0.97-2.16,2.16-2.16c1.2,0,2.16,0.97,2.16,2.16l0,0c0,1.2-0.96,2.16-2.16,2.16
	C123.47,84.29,122.5,83.33,122.5,82.13z"/>
<path class="st8" d="M126.81,82.13c0-1.18-0.96-2.16-2.16-2.16c-1.18,0-2.16,0.97-2.16,2.16c0,1.2,0.97,2.16,2.16,2.16
	C125.85,84.29,126.81,83.33,126.81,82.13"/>
<line class="st4" x1="139.05" y1="53.35" x2="153.44" y2="53.35"/>
<text transform="matrix(1.0246 0 0 1 144.8035 51.9137)" class="st5 st6 st7">1</text>
<text transform="matrix(1.0246 0 0 1 147.9979 51.9137)" class="st5 st6 st7">2</text>
<path class="st8" d="M136.89,53.35c0-1.18,0.97-2.16,2.16-2.16c1.2,0,2.16,0.97,2.16,2.16l0,0c0,1.2-0.96,2.16-2.16,2.16
	C137.86,55.51,136.89,54.55,136.89,53.35z"/>
<path class="st8" d="M141.21,53.35c0-1.18-0.96-2.16-2.16-2.16c-1.18,0-2.16,0.97-2.16,2.16c0,1.2,0.97,2.16,2.16,2.16
	C140.25,55.51,141.21,54.55,141.21,53.35"/>
<line class="st4" x1="139.05" y1="60.55" x2="153.44" y2="60.55"/>
<text transform="matrix(1.0246 0 0 1 144.8035 59.1085)" class="st5 st6 st7">1</text>
<text transform="matrix(1.0246 0 0 1 147.9979 59.1085)" class="st5 st6 st7">4</text>
<path class="st8" d="M136.89,60.55c0-1.18,0.97-2.16,2.16-2.16c1.2,0,2.16,0.97,2.16,2.16l0,0c0,1.2-0.96,2.16-2.16,2.16
	C137.86,62.71,136.89,61.75,136.89,60.55z"/>
<path class="st8" d="M141.21,60.55c0-1.18-0.96-2.16-2.16-2.16c-1.18,0-2.16,0.97-2.16,2.16c0,1.2,0.97,2.16,2.16,2.16
	C140.25,62.71,141.21,61.75,141.21,60.55"/>
<line class="st4" x1="139.05" y1="67.74" x2="153.44" y2="67.74"/>
<text transform="matrix(1.0246 0 0 1 144.8035 66.3029)" class="st5 st6 st7">1</text>
<text transform="matrix(1.0246 0 0 1 147.9979 66.3029)" class="st5 st6 st7">6</text>
<path class="st8" d="M136.89,67.74c0-1.18,0.97-2.16,2.16-2.16c1.2,0,2.16,0.97,2.16,2.16l0,0c0,1.2-0.96,2.16-2.16,2.16
	C137.86,69.9,136.89,68.94,136.89,67.74z"/>
<path class="st8" d="M141.21,67.74c0-1.18-0.96-2.16-2.16-2.16c-1.18,0-2.16,0.97-2.16,2.16c0,1.2,0.97,2.16,2.16,2.16
	C140.25,69.9,141.21,68.94,141.21,67.74"/>
<line class="st4" x1="139.05" y1="74.94" x2="153.44" y2="74.94"/>
<text transform="matrix(1.0246 0 0 1 144.8035 73.4972)" class="st5 st6 st7">1</text>
<text transform="matrix(1.0246 0 0 1 147.9979 73.4972)" class="st5 st6 st7">8</text>
<path class="st8" d="M136.89,74.94c0-1.18,0.97-2.16,2.16-2.16c1.2,0,2.16,0.97,2.16,2.16l0,0c0,1.2-0.96,2.16-2.16,2.16
	C137.86,77.09,136.89,76.14,136.89,74.94z"/>
<path class="st8" d="M141.21,74.94c0-1.18-0.96-2.16-2.16-2.16c-1.18,0-2.16,0.97-2.16,2.16c0,1.2,0.97,2.16,2.16,2.16
	C140.25,77.09,141.21,76.14,141.21,74.94"/>
<line class="st4" x1="139.05" y1="82.13" x2="153.44" y2="82.13"/>
<text transform="matrix(1.0246 0 0 1 144.8035 80.692)" class="st5 st6 st7">2</text>
<text transform="matrix(1.0246 0 0 1 147.9979 80.692)" class="st5 st6 st7">0</text>
<path class="st8" d="M136.89,82.13c0-1.18,0.97-2.16,2.16-2.16c1.2,0,2.16,0.97,2.16,2.16l0,0c0,1.2-0.96,2.16-2.16,2.16
	C137.86,84.29,136.89,83.33,136.89,82.13z"/>
<path class="st8" d="M141.21,82.13c0-1.18-0.96-2.16-2.16-2.16c-1.18,0-2.16,0.97-2.16,2.16c0,1.2,0.97,2.16,2.16,2.16
	C140.25,84.29,141.21,83.33,141.21,82.13"/>
<line class="st4" x1="124.65" y1="89.32" x2="110.26" y2="89.32"/>
<text transform="matrix(1.0246 0 0 1 113.1404 87.8864)" class="st5 st6 st7">2</text>
<text transform="matrix(1.0246 0 0 1 116.3348 87.8864)" class="st5 st6 st7">1</text>
<line class="st4" x1="139.05" y1="89.32" x2="153.44" y2="89.32"/>
<text transform="matrix(1.0246 0 0 1 144.8035 87.8864)" class="st5 st6 st7">2</text>
<text transform="matrix(1.0246 0 0 1 147.9979 87.8864)" class="st5 st6 st7">2</text>
<line class="st4" x1="124.65" y1="96.52" x2="110.26" y2="96.52"/>
<text transform="matrix(1.0246 0 0 1 112.9012 95.0807)" class="st5 st6 st7">2</text>
<text transform="matrix(1.0246 0 0 1 116.0955 95.0807)" class="st5 st6 st7">3</text>
<line class="st4" x1="139.05" y1="96.52" x2="153.44" y2="96.52"/>
<text transform="matrix(1.0246 0 0 1 144.8035 95.0807)" class="st5 st6 st7">2</text>
<text transform="matrix(1.0246 0 0 1 147.9979 95.0807)" class="st5 st6 st7">4</text>
<line class="st4" x1="124.65" y1="103.71" x2="110.26" y2="103.71"/>
<text transform="matrix(1.0246 0 0 1 112.9012 102.275)" class="st5 st6 st7">2</text>
<text transform="matrix(1.0246 0 0 1 116.0955 102.275)" class="st5 st6 st7">5</text>
<line class="st4" x1="139.05" y1="103.71" x2="153.44" y2="103.71"/>
<text transform="matrix(1.0246 0 0 1 144.8035 102.275)" class="st5 st6 st7">2</text>
<text transform="matrix(1.0246 0 0 1 147.9979 102.275)" class="st5 st6 st7">6</text>
<line class="st4" x1="124.65" y1="110.91" x2="110.26" y2="110.91"/>
<text transform="matrix(1.0246 0 0 1 112.661 109.4694)" class="st5 st6 st7">2</text>
<text transform="matrix(1.0246 0 0 1 115.8553 109.4694)" class="st5 st6 st7">7</text>
<line class="st4" x1="139.05" y1="110.91" x2="153.44" y2="110.91"/>
<text transform="matrix(1.0246 0 0 1 144.8035 109.4694)" class="st5 st6 st7">2</text>
<text transform="matrix(1.0246 0 0 1 147.9979 109.4694)" class="st5 st6 st7">8</text>
<line class="st4" x1="124.65" y1="118.1" x2="110.26" y2="118.1"/>
<text transform="matrix(1.0246 0 0 1 112.661 116.6637)" class="st5 st6 st7">2</text>
<text transform="matrix(1.0246 0 0 1 115.8553 116.6637)" class="st5 st6 st7">9</text>
<line class="st4" x1="139.05" y1="118.1" x2="153.44" y2="118.1"/>
<text transform="matrix(1.0246 0 0 1 144.8035 116.6637)" class="st5 st6 st7">3</text>
<text transform="matrix(1.0246 0 0 1 147.9979 116.6637)" class="st5 st6 st7">0</text>
<line class="st4" x1="124.65" y1="125.3" x2="110.26" y2="125.3"/>
<text transform="matrix(1.0246 0 0 1 113.1404 123.8581)" class="st5 st6 st7">3</text>
<text transform="matrix(1.0246 0 0 1 116.3348 123.8581)" class="st5 st6 st7">1</text>
<line class="st4" x1="139.05" y1="125.3" x2="153.44" y2="125.3"/>
<text transform="matrix(1.0246 0 0 1 144.8035 123.8581)" class="st5 st6 st7">3</text>
<text transform="matrix(1.0246 0 0 1 147.9979 123.8581)" class="st5 st6 st7">2</text>
<line class="st4" x1="124.65" y1="132.49" x2="110.26" y2="132.49"/>
<text transform="matrix(1.0246 0 0 1 112.9012 131.0529)" class="st5 st6 st7">3</text>
<text transform="matrix(1.0246 0 0 1 116.0955 131.0529)" class="st5 st6 st7">3</text>
<line class="st4" x1="139.05" y1="132.49" x2="153.44" y2="132.49"/>
<text transform="matrix(1.0246 0 0 1 144.8035 131.0529)" class="st5 st6 st7">3</text>
<text transform="matrix(1.0246 0 0 1 147.9979 131.0529)" class="st5 st6 st7">4</text>
<line class="st4" x1="124.65" y1="139.69" x2="110.26" y2="139.69"/>
<text transform="matrix(1.0246 0 0 1 112.9012 138.2472)" class="st5 st6 st7">3</text>
<text transform="matrix(1.0246 0 0 1 116.0955 138.2472)" class="st5 st6 st7">5</text>
<line class="st4" x1="139.05" y1="139.69" x2="153.44" y2="139.69"/>
<text transform="matrix(1.0246 0 0 1 144.8035 138.2472)" class="st5 st6 st7">3</text>
<text transform="matrix(1.0246 0 0 1 147.9979 138.2472)" class="st5 st6 st7">6</text>
<line class="st4" x1="124.65" y1="146.88" x2="110.26" y2="146.88"/>
<text transform="matrix(1.0246 0 0 1 112.661 145.4416)" class="st5 st6 st7">3</text>
<text transform="matrix(1.0246 0 0 1 115.8553 145.4416)" class="st5 st6 st7">7</text>
<line class="st4" x1="139.05" y1="146.88" x2="153.44" y2="146.88"/>
<text transform="matrix(1.0246 0 0 1 144.8035 145.4416)" class="st5 st6 st7">3</text>
<text transform="matrix(1.0246 0 0 1 147.9979 145.4416)" class="st5 st6 st7">8</text>
<line class="st4" x1="124.65" y1="154.07" x2="110.26" y2="154.07"/>
<text transform="matrix(1.0246 0 0 1 112.661 152.6364)" class="st5 st6 st7">3</text>
<text transform="matrix(1.0246 0 0 1 115.8553 152.6364)" class="st5 st6 st7">9</text>
<line class="st4" x1="139.05" y1="154.07" x2="153.44" y2="154.07"/>
<text transform="matrix(1.0246 0 0 1 144.8035 152.6364)" class="st5 st6 st7">4</text>
<text transform="matrix(1.0246 0 0 1 147.9979 152.6364)" class="st5 st6 st7">0</text>
<path class="st8" d="M122.5,89.32c0-1.18,0.97-2.16,2.16-2.16c1.2,0,2.16,0.97,2.16,2.16l0,0c0,1.2-0.96,2.16-2.16,2.16
	C123.47,91.48,122.5,90.52,122.5,89.32z"/>
<path class="st8" d="M126.81,89.32c0-1.18-0.96-2.16-2.16-2.16c-1.18,0-2.16,0.97-2.16,2.16c0,1.2,0.97,2.16,2.16,2.16
	C125.85,91.48,126.81,90.52,126.81,89.32"/>
<path class="st8" d="M122.5,96.52c0-1.18,0.97-2.16,2.16-2.16c1.2,0,2.16,0.97,2.16,2.16l0,0c0,1.2-0.96,2.16-2.16,2.16
	C123.47,98.68,122.5,97.72,122.5,96.52z"/>
<path class="st8" d="M126.81,96.52c0-1.18-0.96-2.16-2.16-2.16c-1.18,0-2.16,0.97-2.16,2.16c0,1.2,0.97,2.16,2.16,2.16
	C125.85,98.68,126.81,97.72,126.81,96.52"/>
<path class="st8" d="M136.89,89.32c0-1.18,0.97-2.16,2.16-2.16c1.2,0,2.16,0.97,2.16,2.16l0,0c0,1.2-0.96,2.16-2.16,2.16
	C137.86,91.48,136.89,90.52,136.89,89.32z"/>
<path class="st8" d="M141.21,89.32c0-1.18-0.96-2.16-2.16-2.16c-1.18,0-2.16,0.97-2.16,2.16c0,1.2,0.97,2.16,2.16,2.16
	C140.25,91.48,141.21,90.52,141.21,89.32"/>
<path class="st8" d="M136.89,96.52c0-1.18,0.97-2.16,2.16-2.16c1.2,0,2.16,0.97,2.16,2.16l0,0c0,1.2-0.96,2.16-2.16,2.16
	C137.86,98.68,136.89,97.72,136.89,96.52z"/>
<path class="st8" d="M141.21,96.52c0-1.18-0.96-2.16-2.16-2.16c-1.18,0-2.16,0.97-2.16,2.16c0,1.2,0.97,2.16,2.16,2.16
	C140.25,98.68,141.21,97.72,141.21,96.52"/>
<path class="st8" d="M122.5,103.71c0-1.18,0.97-2.16,2.16-2.16c1.2,0,2.16,0.97,2.16,2.16l0,0c0,1.2-0.96,2.16-2.16,2.16
	C123.47,105.87,122.5,104.91,122.5,103.71z"/>
<path class="st8" d="M126.81,103.71c0-1.18-0.96-2.16-2.16-2.16c-1.18,0-2.16,0.97-2.16,2.16c0,1.2,0.97,2.16,2.16,2.16
	C125.85,105.87,126.81,104.91,126.81,103.71"/>
<path class="st8" d="M122.5,110.91c0-1.18,0.97-2.16,2.16-2.16c1.2,0,2.16,0.97,2.16,2.16l0,0c0,1.2-0.96,2.16-2.16,2.16
	C123.47,113.07,122.5,112.11,122.5,110.91z"/>
<path class="st8" d="M126.81,110.91c0-1.18-0.96-2.16-2.16-2.16c-1.18,0-2.16,0.97-2.16,2.16c0,1.2,0.97,2.16,2.16,2.16
	C125.85,113.07,126.81,112.11,126.81,110.91"/>
<path class="st8" d="M136.89,103.71c0-1.18,0.97-2.16,2.16-2.16c1.2,0,2.16,0.97,2.16,2.16l0,0c0,1.2-0.96,2.16-2.16,2.16
	C137.86,105.87,136.89,104.91,136.89,103.71z"/>
<path class="st8" d="M141.21,103.71c0-1.18-0.96-2.16-2.16-2.16c-1.18,0-2.16,0.97-2.16,2.16c0,1.2,0.97,2.16,2.16,2.16
	C140.25,105.87,141.21,104.91,141.21,103.71"/>
<path class="st8" d="M136.89,110.91c0-1.18,0.97-2.16,2.16-2.16c1.2,0,2.16,0.97,2.16,2.16l0,0c0,1.2-0.96,2.16-2.16,2.16
	C137.86,113.07,136.89,112.11,136.89,110.91z"/>
<path class="st8" d="M141.21,110.91c0-1.18-0.96-2.16-2.16-2.16c-1.18,0-2.16,0.97-2.16,2.16c0,1.2,0.97,2.16,2.16,2.16
	C140.25,113.07,141.21,112.11,141.21,110.91"/>
<path class="st8" d="M122.5,118.1c0-1.18,0.97-2.16,2.16-2.16c1.2,0,2.16,0.97,2.16,2.16l0,0c0,1.2-0.96,2.16-2.16,2.16
	C123.47,120.26,122.5,119.3,122.5,118.1z"/>
<path class="st8" d="M126.81,118.1c0-1.18-0.96-2.16-2.16-2.16c-1.18,0-2.16,0.97-2.16,2.16c0,1.2,0.97,2.16,2.16,2.16
	C125.85,120.26,126.81,119.3,126.81,118.1"/>
<path class="st8" d="M122.5,125.3c0-1.18,0.97-2.16,2.16-2.16c1.2,0,2.16,0.97,2.16,2.16l0,0c0,1.2-0.96,2.16-2.16,2.16
	C123.47,127.46,122.5,126.5,122.5,125.3z"/>
<path class="st8" d="M126.81,125.3c0-1.18-0.96-2.16-2.16-2.16c-1.18,0-2.16,0.97-2.16,2.16c0,1.2,0.97,2.16,2.16,2.16
	C125.85,127.46,126.81,126.5,126.81,125.3"/>
<path class="st8" d="M136.89,118.1c0-1.18,0.97-2.16,2.16-2.16c1.2,0,2.16,0.97,2.16,2.16l0,0c0,1.2-0.96,2.16-2.16,2.16
	C137.86,120.26,136.89,119.3,136.89,118.1z"/>
<path class="st8" d="M141.21,118.1c0-1.18-0.96-2.16-2.16-2.16c-1.18,0-2.16,0.97-2.16,2.16c0,1.2,0.97,2.16,2.16,2.16
	C140.25,120.26,141.21,119.3,141.21,118.1"/>
<path class="st8" d="M136.89,125.3c0-1.18,0.97-2.16,2.16-2.16c1.2,0,2.16,0.97,2.16,2.16l0,0c0,1.2-0.96,2.16-2.16,2.16
	C137.86,127.46,136.89,126.5,136.89,125.3z"/>
<path class="st8" d="M141.21,125.3c0-1.18-0.96-2.16-2.16-2.16c-1.18,0-2.16,0.97-2.16,2.16c0,1.2,0.97,2.16,2.16,2.16
	C140.25,127.46,141.21,126.5,141.21,125.3"/>
<path class="st8" d="M122.5,132.49c0-1.18,0.97-2.16,2.16-2.16c1.2,0,2.16,0.97,2.16,2.16l0,0c0,1.2-0.96,2.16-2.16,2.16
	C123.47,134.65,122.5,133.69,122.5,132.49z"/>
<path class="st8" d="M126.81,132.49c0-1.18-0.96-2.16-2.16-2.16c-1.18,0-2.16,0.97-2.16,2.16c0,1.2,0.97,2.16,2.16,2.16
	C125.85,134.65,126.81,133.69,126.81,132.49"/>
<path class="st8" d="M122.5,139.69c0-1.18,0.97-2.16,2.16-2.16c1.2,0,2.16,0.97,2.16,2.16l0,0c0,1.2-0.96,2.16-2.16,2.16
	C123.47,141.84,122.5,140.88,122.5,139.69z"/>
<path class="st8" d="M126.81,139.69c0-1.18-0.96-2.16-2.16-2.16c-1.18,0-2.16,0.97-2.16,2.16c0,1.2,0.97,2.16,2.16,2.16
	C125.85,141.84,126.81,140.88,126.81,139.69"/>
<path class="st8" d="M136.89,132.49c0-1.18,0.97-2.16,2.16-2.16c1.2,0,2.16,0.97,2.16,2.16l0,0c0,1.2-0.96,2.16-2.16,2.16
	C137.86,134.65,136.89,133.69,136.89,132.49z"/>
<path class="st8" d="M141.21,132.49c0-1.18-0.96-2.16-2.16-2.16c-1.18,0-2.16,0.97-2.16,2.16c0,1.2,0.97,2.16,2.16,2.16
	C140.25,134.65,141.21,133.69,141.21,132.49"/>
<path class="st8" d="M136.89,139.69c0-1.18,0.97-2.16,2.16-2.16c1.2,0,2.16,0.97,2.16,2.16l0,0c0,1.2-0.96,2.16-2.16,2.16
	C137.86,141.84,136.89,140.88,136.89,139.69z"/>
<path class="st8" d="M141.21,139.69c0-1.18-0.96-2.16-2.16-2.16c-1.18,0-2.16,0.97-2.16,2.16c0,1.2,0.97,2.16,2.16,2.16
	C140.25,141.84,141.21,140.88,141.21,139.69"/>
<path class="st8" d="M122.5,146.88c0-1.18,0.97-2.16,2.16-2.16c1.2,0,2.16,0.97,2.16,2.16l0,0c0,1.2-0.96,2.16-2.16,2.16
	C123.47,149.04,122.5,148.08,122.5,146.88z"/>
<path class="st8" d="M126.81,146.88c0-1.18-0.96-2.16-2.16-2.16c-1.18,0-2.16,0.97-2.16,2.16c0,1.2,0.97,2.16,2.16,2.16
	C125.85,149.04,126.81,148.08,126.81,146.88"/>
<path class="st8" d="M122.5,154.07c0-1.18,0.97-2.16,2.16-2.16c1.2,0,2.16,0.97,2.16,2.16l0,0c0,1.2-0.96,2.16-2.16,2.16
	C123.47,156.23,122.5,155.27,122.5,154.07z"/>
<path class="st8" d="M126.81,154.07c0-1.18-0.96-2.16-2.16-2.16c-1.18,0-2.16,0.97-2.16,2.16c0,1.2,0.97,2.16,2.16,2.16
	C125.85,156.23,126.81,155.27,126.81,154.07"/>
<path class="st8" d="M136.89,146.88c0-1.18,0.97-2.16,2.16-2.16c1.2,0,2.16,0.97,2.16,2.16l0,0c0,1.2-0.96,2.16-2.16,2.16
	C137.86,149.04,136.89,148.08,136.89,146.88z"/>
<path class="st8" d="M141.21,146.88c0-1.18-0.96-2.16-2.16-2.16c-1.18,0-2.16,0.97-2.16,2.16c0,1.2,0.97,2.16,2.16,2.16
	C140.25,149.04,141.21,148.08,141.21,146.88"/>
<path class="st8" d="M136.89,154.07c0-1.18,0.97-2.16,2.16-2.16c1.2,0,2.16,0.97,2.16,2.16l0,0c0,1.2-0.96,2.16-2.16,2.16
	C137.86,156.23,136.89,155.27,136.89,154.07z"/>
<path class="st8" d="M141.21,154.07c0-1.18-0.96-2.16-2.16-2.16c-1.18,0-2.16,0.97-2.16,2.16c0,1.2,0.97,2.16,2.16,2.16
	C140.25,156.23,141.21,155.27,141.21,154.07"/>
<text transform="matrix(1.0246 0 0 1 121.0565 8.7472)" class="st0 st6 st7">J</text>
<text transform="matrix(1.0246 0 0 1 123.5135 8.7472)" class="st0 st6 st7">4</text>
<text transform="matrix(1.0246 0 0 1 121.0565 167.0251)" class="st0 st6 st7">4</text>
<text transform="matrix(1.0246 0 0 1 124.4959 167.0251)" class="st0 st6 st7">0</text>
<text transform="matrix(1.0246 0 0 1 127.9354 167.0251)"><tspan x="0" y="0" class="st0 st6 st7">-</tspan><tspan x="2.21" y="0" class="st0 st6 st7">p</tspan></text>
<text transform="matrix(1.0246 0 0 1 133.5877 167.0251)" class="st0 st6 st7">i</text>
<text transform="matrix(1.0246 0 0 1 135.5535 167.0251)" class="st0 st6 st7">n</text>
<text transform="matrix(1.0246 0 0 1 138.993 167.0251)" class="st0 st6 st7">,</text>
<text transform="matrix(1.0246 0 0 1 141.9412 167.0251)" class="st0 st6 st7">1</text>
<text transform="matrix(1.0246 0 0 1 145.3807 167.0251)"><tspan x="0" y="0" class="st0 st6 st7">.</tspan><tspan x="1.7" y="0" class="st0 st6 st7">2</tspan></text>
<text transform="matrix(1.0246 0 0 1 150.5408 167.0251)" class="st0 st6 st7">7</text>
<text transform="matrix(1.0246 0 0 1 153.7352 167.0251)" class="st0 st6 st7">m</text>
<text transform="matrix(1.0246 0 0 1 158.6492 167.0251)" class="st0 st6 st7">m</text>
<line class="st9" x1="225.4" y1="175.66" x2="239.79" y2="175.66"/>
<line class="st9" x1="227.56" y1="177.82" x2="237.63" y2="177.82"/>
<line class="st9" x1="229.72" y1="179.97" x2="235.47" y2="179.97"/>
<line class="st9" x1="231.88" y1="182.13" x2="233.32" y2="182.13"/>
<text transform="matrix(1.0246 0 0 1 225.6404 188.6081)" class="st10 st6 st7">G</text>
<text transform="matrix(1.0246 0 0 1 230.3084 188.6081)" class="st10 st6 st7">N</text>
<text transform="matrix(1.0246 0 0 1 235.2225 188.6081)" class="st10 st6 st7">D</text>
<line class="st9" x1="232.6" y1="168.46" x2="232.6" y2="175.66"/>
<line class="st9" x1="250.59" y1="67.74" x2="257.78" y2="67.74"/>
<text transform="matrix(1.0246 0 0 1 246.9881 66.3029)"><tspan x="0" y="0" class="st10 st6 st7">+</tspan><tspan x="3.68" y="0" class="st10 st6 st7">3</tspan></text>
<text transform="matrix(1.0246 0 0 1 254.1141 66.3029)" class="st10 st6 st7">V</text>
<text transform="matrix(1.0246 0 0 1 258.783 66.3029)" class="st10 st6 st7">3</text>
<line class="st9" x1="254.18" y1="74.94" x2="254.18" y2="67.74"/>
<line class="st9" x1="20.31" y1="74.94" x2="27.51" y2="74.94"/>
<text transform="matrix(1.0246 0 0 1 3.2796 73.4972)" class="st10 st6 st7">V</text>
<text transform="matrix(1.0246 0 0 1 8.1937 73.4972)"><tspan x="0" y="0" class="st10 st6 st7">CC</tspan><tspan x="8.71" y="0" class="st10 st6 st7">U</tspan></text>
<text transform="matrix(1.0246 0 0 1 21.9534 73.4972)"><tspan x="0" y="0" class="st10 st6 st7">S</tspan><tspan x="3.65" y="0" class="st10 st6 st7">E</tspan></text>
<text transform="matrix(1.0246 0 0 1 29.8162 73.4972)"><tspan x="0" y="0" class="st10 st6 st7">R</tspan><tspan x="4.2" y="0" class="st10 st6 st7">I</tspan></text>
<text transform="matrix(1.0246 0 0 1 36.2054 73.4972)" class="st10 st6 st7">O</text>
<text transform="matrix(1.0246 0 0 1 40.8738 73.4972)" class="st10 st6 st7">A</text>
<line class="st9" x1="23.91" y1="82.13" x2="23.91" y2="74.94"/>
<text transform="matrix(1.0246 0 0 1 67.0858 15.942)" class="st10 st6 st7">U</text>
<text transform="matrix(1.0246 0 0 1 71.9998 15.942)"><tspan x="0" y="0" class="st10 st6 st7">S</tspan><tspan x="3.65" y="0" class="st10 st6 st7">E</tspan></text>
<text transform="matrix(1.0246 0 0 1 79.8621 15.942)"><tspan x="0" y="0" class="st10 st6 st7">RI</tspan><tspan x="6.55" y="0" class="st10 st6 st7">O</tspan></text>
<text transform="matrix(1.0246 0 0 1 91.41 15.942)" class="st10 st6 st7">A</text>
<text transform="matrix(1.0246 0 0 1 96.0779 15.942)" class="st10 st6 st7">-</text>
<text transform="matrix(1.0246 0 0 1 98.0438 15.942)" class="st10 st6 st7">1</text>
<text transform="matrix(1.0246 0 0 1 67.0858 23.1364)" class="st10 st6 st7">U</text>
<text transform="matrix(1.0246 0 0 1 71.9998 23.1364)"><tspan x="0" y="0" class="st10 st6 st7">S</tspan><tspan x="3.65" y="0" class="st10 st6 st7">E</tspan></text>
<text transform="matrix(1.0246 0 0 1 79.8621 23.1364)"><tspan x="0" y="0" class="st10 st6 st7">RI</tspan><tspan x="6.55" y="0" class="st10 st6 st7">O</tspan></text>
<text transform="matrix(1.0246 0 0 1 91.41 23.1364)" class="st10 st6 st7">A</text>
<text transform="matrix(1.0246 0 0 1 96.0779 23.1364)" class="st10 st6 st7">-</text>
<text transform="matrix(1.0246 0 0 1 98.0438 23.1364)" class="st10 st6 st7">3</text>
<text transform="matrix(1.0246 0 0 1 67.0858 30.3307)" class="st10 st6 st7">U</text>
<text transform="matrix(1.0246 0 0 1 71.9998 30.3307)"><tspan x="0" y="0" class="st10 st6 st7">S</tspan><tspan x="3.65" y="0" class="st10 st6 st7">E</tspan></text>
<text transform="matrix(1.0246 0 0 1 79.8621 30.3307)"><tspan x="0" y="0" class="st10 st6 st7">RI</tspan><tspan x="6.55" y="0" class="st10 st6 st7">O</tspan></text>
<text transform="matrix(1.0246 0 0 1 91.41 30.3307)" class="st10 st6 st7">A</text>
<text transform="matrix(1.0246 0 0 1 96.0779 30.3307)" class="st10 st6 st7">-</text>
<text transform="matrix(1.0246 0 0 1 98.0438 30.3307)" class="st10 st6 st7">5</text>
<text transform="matrix(1.0246 0 0 1 67.0858 37.5255)" class="st10 st6 st7">U</text>
<text transform="matrix(1.0246 0 0 1 71.9998 37.5255)"><tspan x="0" y="0" class="st10 st6 st7">S</tspan><tspan x="3.65" y="0" class="st10 st6 st7">E</tspan></text>
<text transform="matrix(1.0246 0 0 1 79.8621 37.5255)"><tspan x="0" y="0" class="st10 st6 st7">RI</tspan><tspan x="6.55" y="0" class="st10 st6 st7">O</tspan></text>
<text transform="matrix(1.0246 0 0 1 91.41 37.5255)" class="st10 st6 st7">A</text>
<text transform="matrix(1.0246 0 0 1 96.0779 37.5255)" class="st10 st6 st7">-</text>
<text transform="matrix(1.0246 0 0 1 98.0438 37.5255)" class="st10 st6 st7">7</text>
<text transform="matrix(1.0246 0 0 1 67.0858 44.7194)" class="st10 st6 st7">U</text>
<text transform="matrix(1.0246 0 0 1 71.9998 44.7194)"><tspan x="0" y="0" class="st10 st6 st7">S</tspan><tspan x="3.65" y="0" class="st10 st6 st7">E</tspan></text>
<text transform="matrix(1.0246 0 0 1 79.8621 44.7194)"><tspan x="0" y="0" class="st10 st6 st7">RI</tspan><tspan x="6.55" y="0" class="st10 st6 st7">O</tspan></text>
<text transform="matrix(1.0246 0 0 1 91.41 44.7194)" class="st10 st6 st7">A</text>
<text transform="matrix(1.0246 0 0 1 96.0779 44.7194)" class="st10 st6 st7">-</text>
<text transform="matrix(1.0246 0 0 1 98.0438 44.7194)" class="st10 st6 st7">9</text>
<text transform="matrix(1.0246 0 0 1 67.0858 51.9137)" class="st10 st6 st7">U</text>
<text transform="matrix(1.0246 0 0 1 71.9998 51.9137)"><tspan x="0" y="0" class="st10 st6 st7">S</tspan><tspan x="3.65" y="0" class="st10 st6 st7">E</tspan></text>
<text transform="matrix(1.0246 0 0 1 79.8621 51.9137)"><tspan x="0" y="0" class="st10 st6 st7">RI</tspan><tspan x="6.55" y="0" class="st10 st6 st7">O</tspan></text>
<text transform="matrix(1.0246 0 0 1 91.41 51.9137)" class="st10 st6 st7">A</text>
<text transform="matrix(1.0246 0 0 1 96.324 51.9137)" class="st10 st6 st7">-</text>
<text transform="matrix(1.0246 0 0 1 98.2889 51.9137)" class="st10 st6 st7">1</text>
<text transform="matrix(1.0246 0 0 1 101.2381 51.9137)" class="st10 st6 st7">1</text>
<text transform="matrix(1.0246 0 0 1 160.6346 51.9137)" class="st10 st6 st7">U</text>
<text transform="matrix(1.0246 0 0 1 165.5486 51.9137)"><tspan x="0" y="0" class="st10 st6 st7">S</tspan><tspan x="3.65" y="0" class="st10 st6 st7">E</tspan></text>
<text transform="matrix(1.0246 0 0 1 173.4119 51.9137)"><tspan x="0" y="0" class="st10 st6 st7">RI</tspan><tspan x="6.55" y="0" class="st10 st6 st7">O</tspan></text>
<text transform="matrix(1.0246 0 0 1 184.9588 51.9137)" class="st10 st6 st7">A</text>
<text transform="matrix(1.0246 0 0 1 189.8729 51.9137)" class="st10 st6 st7">-</text>
<text transform="matrix(1.0246 0 0 1 191.8397 51.9137)" class="st10 st6 st7">1</text>
<text transform="matrix(1.0246 0 0 1 195.033 51.9137)" class="st10 st6 st7">2</text>
<text transform="matrix(1.0246 0 0 1 67.0858 59.1085)" class="st10 st6 st7">U</text>
<text transform="matrix(1.0246 0 0 1 71.9998 59.1085)"><tspan x="0" y="0" class="st10 st6 st7">S</tspan><tspan x="3.65" y="0" class="st10 st6 st7">E</tspan></text>
<text transform="matrix(1.0246 0 0 1 79.8621 59.1085)"><tspan x="0" y="0" class="st10 st6 st7">RI</tspan><tspan x="6.55" y="0" class="st10 st6 st7">O</tspan></text>
<text transform="matrix(1.0246 0 0 1 91.41 59.1085)" class="st10 st6 st7">A</text>
<text transform="matrix(1.0246 0 0 1 96.324 59.1085)" class="st10 st6 st7">-</text>
<text transform="matrix(1.0246 0 0 1 98.2889 59.1085)" class="st10 st6 st7">1</text>
<text transform="matrix(1.0246 0 0 1 101.4842 59.1085)" class="st10 st6 st7">3</text>
<text transform="matrix(1.0246 0 0 1 160.6346 59.1085)" class="st10 st6 st7">U</text>
<text transform="matrix(1.0246 0 0 1 165.5486 59.1085)"><tspan x="0" y="0" class="st10 st6 st7">S</tspan><tspan x="3.65" y="0" class="st10 st6 st7">E</tspan></text>
<text transform="matrix(1.0246 0 0 1 173.4119 59.1085)"><tspan x="0" y="0" class="st10 st6 st7">RI</tspan><tspan x="6.55" y="0" class="st10 st6 st7">O</tspan></text>
<text transform="matrix(1.0246 0 0 1 184.9588 59.1085)" class="st10 st6 st7">A</text>
<text transform="matrix(1.0246 0 0 1 189.8729 59.1085)" class="st10 st6 st7">-</text>
<text transform="matrix(1.0246 0 0 1 191.8397 59.1085)" class="st10 st6 st7">1</text>
<text transform="matrix(1.0246 0 0 1 195.033 59.1085)" class="st10 st6 st7">4</text>
<text transform="matrix(1.0246 0 0 1 67.0858 66.3029)" class="st10 st6 st7">U</text>
<text transform="matrix(1.0246 0 0 1 71.9998 66.3029)"><tspan x="0" y="0" class="st10 st6 st7">S</tspan><tspan x="3.65" y="0" class="st10 st6 st7">E</tspan></text>
<text transform="matrix(1.0246 0 0 1 79.8621 66.3029)"><tspan x="0" y="0" class="st10 st6 st7">RI</tspan><tspan x="6.55" y="0" class="st10 st6 st7">O</tspan></text>
<text transform="matrix(1.0246 0 0 1 91.41 66.3029)" class="st10 st6 st7">A</text>
<text transform="matrix(1.0246 0 0 1 96.324 66.3029)" class="st10 st6 st7">-</text>
<text transform="matrix(1.0246 0 0 1 98.2889 66.3029)" class="st10 st6 st7">1</text>
<text transform="matrix(1.0246 0 0 1 101.4842 66.3029)" class="st10 st6 st7">5</text>
<text transform="matrix(1.0246 0 0 1 160.6346 66.3029)" class="st10 st6 st7">U</text>
<text transform="matrix(1.0246 0 0 1 165.5486 66.3029)"><tspan x="0" y="0" class="st10 st6 st7">S</tspan><tspan x="3.65" y="0" class="st10 st6 st7">E</tspan></text>
<text transform="matrix(1.0246 0 0 1 173.4119 66.3029)"><tspan x="0" y="0" class="st10 st6 st7">RI</tspan><tspan x="6.55" y="0" class="st10 st6 st7">O</tspan></text>
<text transform="matrix(1.0246 0 0 1 184.9588 66.3029)" class="st10 st6 st7">A</text>
<text transform="matrix(1.0246 0 0 1 189.8729 66.3029)" class="st10 st6 st7">-</text>
<text transform="matrix(1.0246 0 0 1 191.8397 66.3029)" class="st10 st6 st7">1</text>
<text transform="matrix(1.0246 0 0 1 195.033 66.3029)" class="st10 st6 st7">6</text>
<text transform="matrix(1.0246 0 0 1 67.0858 73.4972)" class="st10 st6 st7">U</text>
<text transform="matrix(1.0246 0 0 1 71.9998 73.4972)"><tspan x="0" y="0" class="st10 st6 st7">S</tspan><tspan x="3.65" y="0" class="st10 st6 st7">E</tspan></text>
<text transform="matrix(1.0246 0 0 1 79.8621 73.4972)"><tspan x="0" y="0" class="st10 st6 st7">RI</tspan><tspan x="6.55" y="0" class="st10 st6 st7">O</tspan></text>
<text transform="matrix(1.0246 0 0 1 91.41 73.4972)" class="st10 st6 st7">A</text>
<text transform="matrix(1.0246 0 0 1 96.324 73.4972)" class="st10 st6 st7">-</text>
<text transform="matrix(1.0246 0 0 1 98.2889 73.4972)" class="st10 st6 st7">1</text>
<text transform="matrix(1.0246 0 0 1 101.4842 73.4972)" class="st10 st6 st7">7</text>
<text transform="matrix(1.0246 0 0 1 160.6346 73.4972)" class="st10 st6 st7">U</text>
<text transform="matrix(1.0246 0 0 1 165.5486 73.4972)"><tspan x="0" y="0" class="st10 st6 st7">S</tspan><tspan x="3.65" y="0" class="st10 st6 st7">E</tspan></text>
<text transform="matrix(1.0246 0 0 1 173.4119 73.4972)"><tspan x="0" y="0" class="st10 st6 st7">RI</tspan><tspan x="6.55" y="0" class="st10 st6 st7">O</tspan></text>
<text transform="matrix(1.0246 0 0 1 184.9588 73.4972)" class="st10 st6 st7">A</text>
<text transform="matrix(1.0246 0 0 1 189.8729 73.4972)" class="st10 st6 st7">-</text>
<text transform="matrix(1.0246 0 0 1 191.8397 73.4972)" class="st10 st6 st7">1</text>
<text transform="matrix(1.0246 0 0 1 195.033 73.4972)" class="st10 st6 st7">8</text>
<text transform="matrix(1.0246 0 0 1 67.0858 87.8864)" class="st10 st6 st7">U</text>
<text transform="matrix(1.0246 0 0 1 71.9998 87.8864)"><tspan x="0" y="0" class="st10 st6 st7">S</tspan><tspan x="3.65" y="0" class="st10 st6 st7">E</tspan></text>
<text transform="matrix(1.0246 0 0 1 79.8621 87.8864)"><tspan x="0" y="0" class="st10 st6 st7">RI</tspan><tspan x="6.55" y="0" class="st10 st6 st7">O</tspan></text>
<text transform="matrix(1.0246 0 0 1 91.41 87.8864)" class="st10 st6 st7">A</text>
<text transform="matrix(1.0246 0 0 1 96.324 87.8864)" class="st10 st6 st7">-</text>
<text transform="matrix(1.0246 0 0 1 98.2889 87.8864)" class="st10 st6 st7">2</text>
<text transform="matrix(1.0246 0 0 1 101.4842 87.8864)" class="st10 st6 st7">1</text>
<text transform="matrix(1.0246 0 0 1 67.0858 95.0807)" class="st10 st6 st7">U</text>
<text transform="matrix(1.0246 0 0 1 71.9998 95.0807)"><tspan x="0" y="0" class="st10 st6 st7">S</tspan><tspan x="3.65" y="0" class="st10 st6 st7">E</tspan></text>
<text transform="matrix(1.0246 0 0 1 79.8621 95.0807)"><tspan x="0" y="0" class="st10 st6 st7">RI</tspan><tspan x="6.55" y="0" class="st10 st6 st7">O</tspan></text>
<text transform="matrix(1.0246 0 0 1 91.41 95.0807)" class="st10 st6 st7">A</text>
<text transform="matrix(1.0246 0 0 1 96.324 95.0807)" class="st10 st6 st7">-</text>
<text transform="matrix(1.0246 0 0 1 98.2889 95.0807)" class="st10 st6 st7">2</text>
<text transform="matrix(1.0246 0 0 1 101.4842 95.0807)" class="st10 st6 st7">3</text>
<text transform="matrix(1.0246 0 0 1 160.6346 95.0807)" class="st10 st6 st7">U</text>
<text transform="matrix(1.0246 0 0 1 165.5486 95.0807)"><tspan x="0" y="0" class="st10 st6 st7">S</tspan><tspan x="3.65" y="0" class="st10 st6 st7">E</tspan></text>
<text transform="matrix(1.0246 0 0 1 173.4119 95.0807)"><tspan x="0" y="0" class="st10 st6 st7">RI</tspan><tspan x="6.55" y="0" class="st10 st6 st7">O</tspan></text>
<text transform="matrix(1.0246 0 0 1 184.9588 95.0807)" class="st10 st6 st7">A</text>
<text transform="matrix(1.0246 0 0 1 189.8729 95.0807)" class="st10 st6 st7">-</text>
<text transform="matrix(1.0246 0 0 1 191.8397 95.0807)" class="st10 st6 st7">2</text>
<text transform="matrix(1.0246 0 0 1 195.033 95.0807)" class="st10 st6 st7">4</text>
<text transform="matrix(1.0246 0 0 1 67.0858 102.275)" class="st10 st6 st7">U</text>
<text transform="matrix(1.0246 0 0 1 71.9998 102.275)"><tspan x="0" y="0" class="st10 st6 st7">S</tspan><tspan x="3.65" y="0" class="st10 st6 st7">E</tspan></text>
<text transform="matrix(1.0246 0 0 1 79.8621 102.275)"><tspan x="0" y="0" class="st10 st6 st7">RI</tspan><tspan x="6.55" y="0" class="st10 st6 st7">O</tspan></text>
<text transform="matrix(1.0246 0 0 1 91.41 102.275)" class="st10 st6 st7">A</text>
<text transform="matrix(1.0246 0 0 1 96.324 102.275)" class="st10 st6 st7">-</text>
<text transform="matrix(1.0246 0 0 1 98.2889 102.275)" class="st10 st6 st7">2</text>
<text transform="matrix(1.0246 0 0 1 101.4842 102.275)" class="st10 st6 st7">5</text>
<text transform="matrix(1.0246 0 0 1 160.6346 102.275)" class="st10 st6 st7">U</text>
<text transform="matrix(1.0246 0 0 1 165.5486 102.275)"><tspan x="0" y="0" class="st10 st6 st7">S</tspan><tspan x="3.65" y="0" class="st10 st6 st7">E</tspan></text>
<text transform="matrix(1.0246 0 0 1 173.4119 102.275)"><tspan x="0" y="0" class="st10 st6 st7">RI</tspan><tspan x="6.55" y="0" class="st10 st6 st7">O</tspan></text>
<text transform="matrix(1.0246 0 0 1 184.9588 102.275)" class="st10 st6 st7">A</text>
<text transform="matrix(1.0246 0 0 1 189.8729 102.275)" class="st10 st6 st7">-</text>
<text transform="matrix(1.0246 0 0 1 191.8397 102.275)" class="st10 st6 st7">2</text>
<text transform="matrix(1.0246 0 0 1 195.033 102.275)" class="st10 st6 st7">6</text>
<text transform="matrix(1.0246 0 0 1 67.0858 109.4694)" class="st10 st6 st7">U</text>
<text transform="matrix(1.0246 0 0 1 71.9998 109.4694)"><tspan x="0" y="0" class="st10 st6 st7">S</tspan><tspan x="3.65" y="0" class="st10 st6 st7">E</tspan></text>
<text transform="matrix(1.0246 0 0 1 79.8621 109.4694)"><tspan x="0" y="0" class="st10 st6 st7">RI</tspan><tspan x="6.55" y="0" class="st10 st6 st7">O</tspan></text>
<text transform="matrix(1.0246 0 0 1 91.41 109.4694)" class="st10 st6 st7">A</text>
<text transform="matrix(1.0246 0 0 1 96.324 109.4694)" class="st10 st6 st7">-</text>
<text transform="matrix(1.0246 0 0 1 98.2889 109.4694)" class="st10 st6 st7">2</text>
<text transform="matrix(1.0246 0 0 1 101.4842 109.4694)" class="st10 st6 st7">7</text>
<text transform="matrix(1.0246 0 0 1 160.6346 109.4694)" class="st10 st6 st7">U</text>
<text transform="matrix(1.0246 0 0 1 165.5486 109.4694)"><tspan x="0" y="0" class="st10 st6 st7">S</tspan><tspan x="3.65" y="0" class="st10 st6 st7">E</tspan></text>
<text transform="matrix(1.0246 0 0 1 173.4119 109.4694)"><tspan x="0" y="0" class="st10 st6 st7">RI</tspan><tspan x="6.55" y="0" class="st10 st6 st7">O</tspan></text>
<text transform="matrix(1.0246 0 0 1 184.9588 109.4694)" class="st10 st6 st7">A</text>
<text transform="matrix(1.0246 0 0 1 189.8729 109.4694)" class="st10 st6 st7">-</text>
<text transform="matrix(1.0246 0 0 1 191.8397 109.4694)" class="st10 st6 st7">2</text>
<text transform="matrix(1.0246 0 0 1 195.033 109.4694)" class="st10 st6 st7">8</text>
<text transform="matrix(1.0246 0 0 1 67.0858 116.6637)" class="st10 st6 st7">U</text>
<text transform="matrix(1.0246 0 0 1 71.9998 116.6637)"><tspan x="0" y="0" class="st10 st6 st7">S</tspan><tspan x="3.65" y="0" class="st10 st6 st7">E</tspan></text>
<text transform="matrix(1.0246 0 0 1 79.8621 116.6637)"><tspan x="0" y="0" class="st10 st6 st7">RI</tspan><tspan x="6.55" y="0" class="st10 st6 st7">O</tspan></text>
<text transform="matrix(1.0246 0 0 1 91.41 116.6637)" class="st10 st6 st7">A</text>
<text transform="matrix(1.0246 0 0 1 96.324 116.6637)" class="st10 st6 st7">-</text>
<text transform="matrix(1.0246 0 0 1 98.2889 116.6637)" class="st10 st6 st7">2</text>
<text transform="matrix(1.0246 0 0 1 101.4842 116.6637)" class="st10 st6 st7">9</text>
<text transform="matrix(1.0246 0 0 1 160.6346 116.6637)" class="st10 st6 st7">U</text>
<text transform="matrix(1.0246 0 0 1 165.5486 116.6637)"><tspan x="0" y="0" class="st10 st6 st7">S</tspan><tspan x="3.65" y="0" class="st10 st6 st7">E</tspan></text>
<text transform="matrix(1.0246 0 0 1 173.4119 116.6637)"><tspan x="0" y="0" class="st10 st6 st7">RI</tspan><tspan x="6.55" y="0" class="st10 st6 st7">O</tspan></text>
<text transform="matrix(1.0246 0 0 1 184.9588 116.6637)" class="st10 st6 st7">A</text>
<text transform="matrix(1.0246 0 0 1 189.8729 116.6637)" class="st10 st6 st7">-</text>
<text transform="matrix(1.0246 0 0 1 191.8397 116.6637)" class="st10 st6 st7">3</text>
<text transform="matrix(1.0246 0 0 1 195.033 116.6637)" class="st10 st6 st7">0</text>
<text transform="matrix(1.0246 0 0 1 67.0858 123.8581)" class="st10 st6 st7">U</text>
<text transform="matrix(1.0246 0 0 1 71.9998 123.8581)"><tspan x="0" y="0" class="st10 st6 st7">S</tspan><tspan x="3.65" y="0" class="st10 st6 st7">E</tspan></text>
<text transform="matrix(1.0246 0 0 1 79.8621 123.8581)"><tspan x="0" y="0" class="st10 st6 st7">RI</tspan><tspan x="6.55" y="0" class="st10 st6 st7">O</tspan></text>
<text transform="matrix(1.0246 0 0 1 91.41 123.8581)" class="st10 st6 st7">A</text>
<text transform="matrix(1.0246 0 0 1 96.324 123.8581)" class="st10 st6 st7">-</text>
<text transform="matrix(1.0246 0 0 1 98.2889 123.8581)" class="st10 st6 st7">3</text>
<text transform="matrix(1.0246 0 0 1 101.4842 123.8581)" class="st10 st6 st7">1</text>
<text transform="matrix(1.0246 0 0 1 160.6346 123.8581)" class="st10 st6 st7">U</text>
<text transform="matrix(1.0246 0 0 1 165.5486 123.8581)"><tspan x="0" y="0" class="st10 st6 st7">S</tspan><tspan x="3.65" y="0" class="st10 st6 st7">E</tspan></text>
<text transform="matrix(1.0246 0 0 1 173.4119 123.8581)"><tspan x="0" y="0" class="st10 st6 st7">RI</tspan><tspan x="6.55" y="0" class="st10 st6 st7">O</tspan></text>
<text transform="matrix(1.0246 0 0 1 184.9588 123.8581)" class="st10 st6 st7">A</text>
<text transform="matrix(1.0246 0 0 1 189.8729 123.8581)" class="st10 st6 st7">-</text>
<text transform="matrix(1.0246 0 0 1 191.8397 123.8581)" class="st10 st6 st7">3</text>
<text transform="matrix(1.0246 0 0 1 195.033 123.8581)" class="st10 st6 st7">2</text>
<text transform="matrix(1.0246 0 0 1 67.0858 131.0529)" class="st10 st6 st7">U</text>
<text transform="matrix(1.0246 0 0 1 71.9998 131.0529)"><tspan x="0" y="0" class="st10 st6 st7">S</tspan><tspan x="3.65" y="0" class="st10 st6 st7">E</tspan></text>
<text transform="matrix(1.0246 0 0 1 79.8621 131.0529)"><tspan x="0" y="0" class="st10 st6 st7">RI</tspan><tspan x="6.55" y="0" class="st10 st6 st7">O</tspan></text>
<text transform="matrix(1.0246 0 0 1 91.41 131.0529)" class="st10 st6 st7">A</text>
<text transform="matrix(1.0246 0 0 1 96.324 131.0529)" class="st10 st6 st7">-</text>
<text transform="matrix(1.0246 0 0 1 98.2889 131.0529)" class="st10 st6 st7">3</text>
<text transform="matrix(1.0246 0 0 1 101.4842 131.0529)" class="st10 st6 st7">3</text>
<text transform="matrix(1.0246 0 0 1 67.0858 138.2472)" class="st10 st6 st7">U</text>
<text transform="matrix(1.0246 0 0 1 71.9998 138.2472)"><tspan x="0" y="0" class="st10 st6 st7">S</tspan><tspan x="3.65" y="0" class="st10 st6 st7">E</tspan></text>
<text transform="matrix(1.0246 0 0 1 79.8621 138.2472)"><tspan x="0" y="0" class="st10 st6 st7">RI</tspan><tspan x="6.55" y="0" class="st10 st6 st7">O</tspan></text>
<text transform="matrix(1.0246 0 0 1 91.41 138.2472)" class="st10 st6 st7">A</text>
<text transform="matrix(1.0246 0 0 1 96.324 138.2472)" class="st10 st6 st7">-</text>
<text transform="matrix(1.0246 0 0 1 98.2889 138.2472)" class="st10 st6 st7">3</text>
<text transform="matrix(1.0246 0 0 1 101.4842 138.2472)" class="st10 st6 st7">5</text>
<text transform="matrix(1.0246 0 0 1 160.6346 138.2472)" class="st10 st6 st7">U</text>
<text transform="matrix(1.0246 0 0 1 165.5486 138.2472)"><tspan x="0" y="0" class="st10 st6 st7">S</tspan><tspan x="3.65" y="0" class="st10 st6 st7">E</tspan></text>
<text transform="matrix(1.0246 0 0 1 173.4119 138.2472)"><tspan x="0" y="0" class="st10 st6 st7">RI</tspan><tspan x="6.55" y="0" class="st10 st6 st7">O</tspan></text>
<text transform="matrix(1.0246 0 0 1 184.9588 138.2472)" class="st10 st6 st7">A</text>
<text transform="matrix(1.0246 0 0 1 189.8729 138.2472)" class="st10 st6 st7">-</text>
<text transform="matrix(1.0246 0 0 1 191.8397 138.2472)" class="st10 st6 st7">3</text>
<text transform="matrix(1.0246 0 0 1 195.033 138.2472)" class="st10 st6 st7">6</text>
<text transform="matrix(1.0246 0 0 1 67.0858 145.4416)" class="st10 st6 st7">U</text>
<text transform="matrix(1.0246 0 0 1 71.9998 145.4416)"><tspan x="0" y="0" class="st10 st6 st7">S</tspan><tspan x="3.65" y="0" class="st10 st6 st7">E</tspan></text>
<text transform="matrix(1.0246 0 0 1 79.8621 145.4416)"><tspan x="0" y="0" class="st10 st6 st7">RI</tspan><tspan x="6.55" y="0" class="st10 st6 st7">O</tspan></text>
<text transform="matrix(1.0246 0 0 1 91.41 145.4416)" class="st10 st6 st7">A</text>
<text transform="matrix(1.0246 0 0 1 96.324 145.4416)" class="st10 st6 st7">-</text>
<text transform="matrix(1.0246 0 0 1 98.2889 145.4416)" class="st10 st6 st7">3</text>
<text transform="matrix(1.0246 0 0 1 101.4842 145.4416)" class="st10 st6 st7">7</text>
<text transform="matrix(1.0246 0 0 1 160.6346 145.4416)" class="st10 st6 st7">U</text>
<text transform="matrix(1.0246 0 0 1 165.5486 145.4416)"><tspan x="0" y="0" class="st10 st6 st7">S</tspan><tspan x="3.65" y="0" class="st10 st6 st7">E</tspan></text>
<text transform="matrix(1.0246 0 0 1 173.4119 145.4416)"><tspan x="0" y="0" class="st10 st6 st7">RI</tspan><tspan x="6.55" y="0" class="st10 st6 st7">O</tspan></text>
<text transform="matrix(1.0246 0 0 1 184.9588 145.4416)" class="st10 st6 st7">A</text>
<text transform="matrix(1.0246 0 0 1 189.8729 145.4416)" class="st10 st6 st7">-</text>
<text transform="matrix(1.0246 0 0 1 191.8397 145.4416)" class="st10 st6 st7">3</text>
<text transform="matrix(1.0246 0 0 1 195.033 145.4416)" class="st10 st6 st7">8</text>
<text transform="matrix(1.0246 0 0 1 67.0858 152.6364)" class="st10 st6 st7">U</text>
<text transform="matrix(1.0246 0 0 1 71.9998 152.6364)"><tspan x="0" y="0" class="st10 st6 st7">S</tspan><tspan x="3.65" y="0" class="st10 st6 st7">E</tspan></text>
<text transform="matrix(1.0246 0 0 1 79.8621 152.6364)"><tspan x="0" y="0" class="st10 st6 st7">RI</tspan><tspan x="6.55" y="0" class="st10 st6 st7">O</tspan></text>
<text transform="matrix(1.0246 0 0 1 91.41 152.6364)" class="st10 st6 st7">A</text>
<text transform="matrix(1.0246 0 0 1 96.324 152.6364)" class="st10 st6 st7">-</text>
<text transform="matrix(1.0246 0 0 1 98.2889 152.6364)" class="st10 st6 st7">3</text>
<text transform="matrix(1.0246 0 0 1 101.4842 152.6364)" class="st10 st6 st7">9</text>
<text transform="matrix(1.0246 0 0 1 160.6346 152.6364)" class="st10 st6 st7">U</text>
<text transform="matrix(1.0246 0 0 1 165.5486 152.6364)"><tspan x="0" y="0" class="st10 st6 st7">S</tspan><tspan x="3.65" y="0" class="st10 st6 st7">E</tspan></text>
<text transform="matrix(1.0246 0 0 1 173.4119 152.6364)"><tspan x="0" y="0" class="st10 st6 st7">RI</tspan><tspan x="6.55" y="0" class="st10 st6 st7">O</tspan></text>
<text transform="matrix(1.0246 0 0 1 184.9588 152.6364)" class="st10 st6 st7">A</text>
<text transform="matrix(1.0246 0 0 1 189.8729 152.6364)" class="st10 st6 st7">-</text>
<text transform="matrix(1.0246 0 0 1 191.8397 152.6364)" class="st10 st6 st7">4</text>
<text transform="matrix(1.0246 0 0 1 195.033 152.6364)" class="st10 st6 st7">0</text>
<polyline class="st11" points="153.44,46.16 153.44,38.96 153.44,31.77 153.44,24.58 153.44,17.38 232.6,17.38 232.6,82.13 "/>
<path class="st0" d="M152,38.96c0-0.79,0.64-1.44,1.44-1.44c0.79,0,1.44,0.64,1.44,1.44l0,0c0,0.79-0.64,1.44-1.44,1.44
	C152.64,40.4,152,39.76,152,38.96z"/>
<path class="st1" d="M152,38.96c0-0.79,0.64-1.44,1.44-1.44c0.79,0,1.44,0.64,1.44,1.44l0,0c0,0.79-0.64,1.44-1.44,1.44
	C152.64,40.4,152,39.76,152,38.96z"/>
<path class="st0" d="M152,31.77c0-0.79,0.64-1.44,1.44-1.44c0.79,0,1.44,0.64,1.44,1.44l0,0c0,0.79-0.64,1.44-1.44,1.44
	C152.64,33.21,152,32.56,152,31.77z"/>
<path class="st1" d="M152,31.77c0-0.79,0.64-1.44,1.44-1.44c0.79,0,1.44,0.64,1.44,1.44l0,0c0,0.79-0.64,1.44-1.44,1.44
	C152.64,33.21,152,32.56,152,31.77z"/>
<path class="st0" d="M152,24.58c0-0.79,0.64-1.44,1.44-1.44c0.79,0,1.44,0.64,1.44,1.44l0,0c0,0.79-0.64,1.44-1.44,1.44
	C152.64,26.01,152,25.37,152,24.58z"/>
<path class="st1" d="M152,24.58c0-0.79,0.64-1.44,1.44-1.44c0.79,0,1.44,0.64,1.44,1.44l0,0c0,0.79-0.64,1.44-1.44,1.44
	C152.64,26.01,152,25.37,152,24.58z"/>
<path class="st0" d="M152,17.38c0-0.79,0.64-1.44,1.44-1.44c0.79,0,1.44,0.64,1.44,1.44l0,0c0,0.79-0.64,1.44-1.44,1.44
	C152.64,18.82,152,18.18,152,17.38z"/>
<path class="st1" d="M152,17.38c0-0.79,0.64-1.44,1.44-1.44c0.79,0,1.44,0.64,1.44,1.44l0,0c0,0.79-0.64,1.44-1.44,1.44
	C152.64,18.82,152,18.18,152,17.38z"/>
<path class="st0" d="M231.16,82.13c0-0.78,0.66-1.44,1.44-1.44c0.81,0,1.44,0.66,1.44,1.44l0,0c0,0.81-0.63,1.44-1.44,1.44
	C231.82,83.57,231.16,82.94,231.16,82.13z"/>
<path class="st1" d="M231.16,82.13c0-0.78,0.66-1.44,1.44-1.44c0.81,0,1.44,0.66,1.44,1.44l0,0c0,0.81-0.63,1.44-1.44,1.44
	C231.82,83.57,231.16,82.94,231.16,82.13z"/>
<polyline class="st11" points="153.44,89.32 254.18,89.32 254.18,74.94 "/>
<line class="st11" x1="110.26" y1="82.13" x2="23.91" y2="82.13"/>
<line class="st11" x1="110.26" y1="17.38" x2="59.89" y2="17.38"/>
<line class="st11" x1="110.26" y1="24.58" x2="59.89" y2="24.58"/>
<line class="st11" x1="110.26" y1="31.77" x2="59.89" y2="31.77"/>
<line class="st11" x1="110.26" y1="38.96" x2="59.89" y2="38.96"/>
<line class="st11" x1="110.26" y1="46.16" x2="59.89" y2="46.16"/>
<line class="st11" x1="110.26" y1="53.35" x2="59.89" y2="53.35"/>
<line class="st11" x1="110.26" y1="60.55" x2="59.89" y2="60.55"/>
<line class="st11" x1="110.26" y1="67.74" x2="59.89" y2="67.74"/>
<line class="st11" x1="110.26" y1="74.94" x2="59.89" y2="74.94"/>
<line class="st11" x1="110.26" y1="89.32" x2="59.89" y2="89.32"/>
<line class="st11" x1="110.26" y1="96.52" x2="59.89" y2="96.52"/>
<line class="st11" x1="110.26" y1="103.71" x2="59.89" y2="103.71"/>
<line class="st11" x1="110.26" y1="110.91" x2="59.89" y2="110.91"/>
<line class="st11" x1="110.26" y1="118.1" x2="59.89" y2="118.1"/>
<line class="st11" x1="110.26" y1="125.3" x2="59.89" y2="125.3"/>
<line class="st11" x1="110.26" y1="132.49" x2="59.89" y2="132.49"/>
<line class="st11" x1="110.26" y1="139.69" x2="59.89" y2="139.69"/>
<line class="st11" x1="110.26" y1="146.88" x2="59.89" y2="146.88"/>
<line class="st11" x1="110.26" y1="154.07" x2="59.89" y2="154.07"/>
<line class="st11" x1="232.6" y1="132.49" x2="232.6" y2="168.46"/>
<path class="st0" d="M231.16,132.49c0-0.78,0.66-1.44,1.44-1.44c0.81,0,1.44,0.66,1.44,1.44l0,0c0,0.81-0.63,1.44-1.44,1.44
	C231.82,133.93,231.16,133.3,231.16,132.49z"/>
<path class="st1" d="M231.16,132.49c0-0.78,0.66-1.44,1.44-1.44c0.81,0,1.44,0.66,1.44,1.44l0,0c0,0.81-0.63,1.44-1.44,1.44
	C231.82,133.93,231.16,133.3,231.16,132.49z"/>
<line class="st11" x1="203.81" y1="60.55" x2="153.44" y2="60.55"/>
<line class="st11" x1="203.81" y1="53.35" x2="153.44" y2="53.35"/>
<line class="st11" x1="203.81" y1="74.94" x2="153.44" y2="74.94"/>
<line class="st11" x1="203.81" y1="67.74" x2="153.44" y2="67.74"/>
<line class="st11" x1="203.81" y1="103.71" x2="153.44" y2="103.71"/>
<line class="st11" x1="203.81" y1="96.52" x2="153.44" y2="96.52"/>
<line class="st11" x1="203.81" y1="118.1" x2="153.44" y2="118.1"/>
<line class="st11" x1="203.81" y1="110.91" x2="153.44" y2="110.91"/>
<line class="st11" x1="203.81" y1="146.88" x2="153.44" y2="146.88"/>
<line class="st11" x1="203.81" y1="139.69" x2="153.44" y2="139.69"/>
<line class="st11" x1="203.81" y1="154.07" x2="153.44" y2="154.07"/>
<line class="st11" x1="203.81" y1="125.3" x2="153.44" y2="125.3"/>
<polyline class="st11" points="153.44,132.49 232.6,132.49 232.6,82.13 153.44,82.13 "/>
<path class="st0" d="M231.16,132.49c0-0.78,0.66-1.44,1.44-1.44c0.81,0,1.44,0.66,1.44,1.44l0,0c0,0.81-0.63,1.44-1.44,1.44
	C231.82,133.93,231.16,133.3,231.16,132.49z"/>
<path class="st1" d="M231.16,132.49c0-0.78,0.66-1.44,1.44-1.44c0.81,0,1.44,0.66,1.44,1.44l0,0c0,0.81-0.63,1.44-1.44,1.44
	C231.82,133.93,231.16,133.3,231.16,132.49z"/>
<path class="st0" d="M231.16,82.13c0-0.78,0.66-1.44,1.44-1.44c0.81,0,1.44,0.66,1.44,1.44l0,0c0,0.81-0.63,1.44-1.44,1.44
	C231.82,83.57,231.16,82.94,231.16,82.13z"/>
<path class="st1" d="M231.16,82.13c0-0.78,0.66-1.44,1.44-1.44c0.81,0,1.44,0.66,1.44,1.44l0,0c0,0.81-0.63,1.44-1.44,1.44
	C231.82,83.57,231.16,82.94,231.16,82.13z"/>
</svg>
